<mxfile host="app.diagrams.net" agent="Mozilla/5.0 (Windows NT 10.0; Win64; x64) AppleWebKit/537.36 (KHTML, like Gecko) Chrome/131.0.0.0 Safari/537.36 Edg/131.0.0.0" version="24.8.6">
  <diagram name="Page-1" id="gtW72Qd9rHoYMToKZ-aS">
    <mxGraphModel dx="132" dy="-262" grid="1" gridSize="10" guides="1" tooltips="1" connect="1" arrows="1" fold="1" page="1" pageScale="1" pageWidth="827" pageHeight="1169" math="0" shadow="0">
      <root>
        <mxCell id="0" />
        <mxCell id="1" parent="0" />
        <mxCell id="XaF80elYHMRwybt8Q3HV-1" value="Сервис по доставке еды - Самокат" style="shape=umlFrame;whiteSpace=wrap;html=1;pointerEvents=0;width=170;height=30;" vertex="1" parent="1">
          <mxGeometry x="980" y="1200" width="640" height="660" as="geometry" />
        </mxCell>
        <mxCell id="XaF80elYHMRwybt8Q3HV-2" value="Изучить&lt;br&gt;&amp;nbsp;ассортимент" style="ellipse;whiteSpace=wrap;html=1;" vertex="1" parent="1">
          <mxGeometry x="990" y="1320" width="140" height="70" as="geometry" />
        </mxCell>
        <mxCell id="XaF80elYHMRwybt8Q3HV-3" value="Сделать заказ" style="ellipse;whiteSpace=wrap;html=1;" vertex="1" parent="1">
          <mxGeometry x="990" y="1600" width="140" height="70" as="geometry" />
        </mxCell>
        <mxCell id="XaF80elYHMRwybt8Q3HV-6" value="Оплатить заказ" style="ellipse;whiteSpace=wrap;html=1;fontStyle=2" vertex="1" parent="1">
          <mxGeometry x="1210" y="1710" width="140" height="70" as="geometry" />
        </mxCell>
        <mxCell id="XaF80elYHMRwybt8Q3HV-7" value="&quot;include&quot;" style="html=1;verticalAlign=bottom;endArrow=open;dashed=1;endSize=8;curved=0;rounded=0;entryX=0;entryY=0.5;entryDx=0;entryDy=0;exitX=1;exitY=1;exitDx=0;exitDy=0;" edge="1" parent="1" source="XaF80elYHMRwybt8Q3HV-3" target="XaF80elYHMRwybt8Q3HV-6">
          <mxGeometry relative="1" as="geometry">
            <mxPoint x="1270" y="1670" as="sourcePoint" />
            <mxPoint x="1190" y="1670" as="targetPoint" />
          </mxGeometry>
        </mxCell>
        <mxCell id="XaF80elYHMRwybt8Q3HV-8" value="" style="html=1;verticalAlign=bottom;endArrow=block;curved=0;rounded=0;endFill=0;endSize=12;entryX=1;entryY=0.5;entryDx=0;entryDy=0;" edge="1" parent="1" target="XaF80elYHMRwybt8Q3HV-6">
          <mxGeometry width="80" relative="1" as="geometry">
            <mxPoint x="1400" y="1745" as="sourcePoint" />
            <mxPoint x="1170" y="1774.5" as="targetPoint" />
          </mxGeometry>
        </mxCell>
        <mxCell id="XaF80elYHMRwybt8Q3HV-9" value="&lt;i&gt;Воспользоваться бонусами&lt;/i&gt;" style="ellipse;whiteSpace=wrap;html=1;" vertex="1" parent="1">
          <mxGeometry x="1210" y="1505" width="140" height="70" as="geometry" />
        </mxCell>
        <mxCell id="XaF80elYHMRwybt8Q3HV-10" value="&quot;extend&quot;" style="html=1;verticalAlign=bottom;endArrow=open;dashed=1;endSize=8;curved=0;rounded=0;exitX=0;exitY=0.5;exitDx=0;exitDy=0;entryX=1;entryY=0;entryDx=0;entryDy=0;" edge="1" parent="1" source="XaF80elYHMRwybt8Q3HV-9" target="XaF80elYHMRwybt8Q3HV-3">
          <mxGeometry x="-0.0151" y="-5" relative="1" as="geometry">
            <mxPoint x="1290" y="1570" as="sourcePoint" />
            <mxPoint x="1193" y="1570" as="targetPoint" />
            <mxPoint y="1" as="offset" />
          </mxGeometry>
        </mxCell>
        <mxCell id="XaF80elYHMRwybt8Q3HV-11" value="Искать продукт" style="ellipse;whiteSpace=wrap;html=1;" vertex="1" parent="1">
          <mxGeometry x="1210" y="1230" width="140" height="70" as="geometry" />
        </mxCell>
        <mxCell id="XaF80elYHMRwybt8Q3HV-12" value="&quot;extend&quot;" style="html=1;verticalAlign=bottom;endArrow=open;dashed=1;endSize=8;curved=0;rounded=0;entryX=1;entryY=0;entryDx=0;entryDy=0;exitX=0;exitY=0.5;exitDx=0;exitDy=0;" edge="1" parent="1" source="XaF80elYHMRwybt8Q3HV-11" target="XaF80elYHMRwybt8Q3HV-2">
          <mxGeometry relative="1" as="geometry">
            <mxPoint x="1252.5" y="1244.5" as="sourcePoint" />
            <mxPoint x="1177.5" y="1244.5" as="targetPoint" />
          </mxGeometry>
        </mxCell>
        <mxCell id="XaF80elYHMRwybt8Q3HV-13" value="Выбрать&lt;div&gt;&amp;nbsp;категорию/сортировку&lt;/div&gt;" style="ellipse;whiteSpace=wrap;html=1;" vertex="1" parent="1">
          <mxGeometry x="1210" y="1400" width="140" height="70" as="geometry" />
        </mxCell>
        <mxCell id="XaF80elYHMRwybt8Q3HV-14" value="&quot;extend&quot;" style="html=1;verticalAlign=bottom;endArrow=open;dashed=1;endSize=8;curved=0;rounded=0;entryX=1;entryY=1;entryDx=0;entryDy=0;exitX=0;exitY=0.5;exitDx=0;exitDy=0;" edge="1" parent="1" source="XaF80elYHMRwybt8Q3HV-13" target="XaF80elYHMRwybt8Q3HV-2">
          <mxGeometry relative="1" as="geometry">
            <mxPoint x="1237.5" y="1420" as="sourcePoint" />
            <mxPoint x="1162.5" y="1420" as="targetPoint" />
          </mxGeometry>
        </mxCell>
        <mxCell id="XaF80elYHMRwybt8Q3HV-15" value="Оплатить банковской картой" style="ellipse;whiteSpace=wrap;html=1;" vertex="1" parent="1">
          <mxGeometry x="1450" y="1669" width="140" height="70" as="geometry" />
        </mxCell>
        <mxCell id="XaF80elYHMRwybt8Q3HV-16" style="edgeStyle=orthogonalEdgeStyle;rounded=0;orthogonalLoop=1;jettySize=auto;html=1;entryX=0;entryY=0.5;entryDx=0;entryDy=0;endArrow=none;endFill=0;exitX=0;exitY=0.5;exitDx=0;exitDy=0;" edge="1" parent="1" source="XaF80elYHMRwybt8Q3HV-23" target="XaF80elYHMRwybt8Q3HV-15">
          <mxGeometry relative="1" as="geometry">
            <mxPoint x="1910" y="1810" as="sourcePoint" />
            <Array as="points">
              <mxPoint x="1400" y="1800" />
              <mxPoint x="1400" y="1705" />
            </Array>
          </mxGeometry>
        </mxCell>
        <mxCell id="XaF80elYHMRwybt8Q3HV-17" value="Применить СберСпасибо" style="ellipse;whiteSpace=wrap;html=1;" vertex="1" parent="1">
          <mxGeometry x="1450" y="1575" width="140" height="70" as="geometry" />
        </mxCell>
        <mxCell id="XaF80elYHMRwybt8Q3HV-20" value="Применить промокод" style="ellipse;whiteSpace=wrap;html=1;" vertex="1" parent="1">
          <mxGeometry x="1450" y="1435" width="140" height="80" as="geometry" />
        </mxCell>
        <mxCell id="XaF80elYHMRwybt8Q3HV-21" value="" style="endArrow=block;endSize=16;endFill=0;html=1;rounded=0;entryX=1;entryY=0.5;entryDx=0;entryDy=0;" edge="1" parent="1" target="XaF80elYHMRwybt8Q3HV-9">
          <mxGeometry width="160" relative="1" as="geometry">
            <mxPoint x="1410" y="1540" as="sourcePoint" />
            <mxPoint x="1460" y="1590" as="targetPoint" />
          </mxGeometry>
        </mxCell>
        <mxCell id="XaF80elYHMRwybt8Q3HV-22" value="" style="endArrow=none;html=1;edgeStyle=orthogonalEdgeStyle;rounded=0;exitX=0;exitY=0.5;exitDx=0;exitDy=0;entryX=0;entryY=0.5;entryDx=0;entryDy=0;" edge="1" parent="1" source="XaF80elYHMRwybt8Q3HV-20" target="XaF80elYHMRwybt8Q3HV-17">
          <mxGeometry relative="1" as="geometry">
            <mxPoint x="1200" y="1625" as="sourcePoint" />
            <mxPoint x="1360" y="1625" as="targetPoint" />
            <Array as="points">
              <mxPoint x="1410" y="1475" />
              <mxPoint x="1410" y="1610" />
            </Array>
          </mxGeometry>
        </mxCell>
        <mxCell id="XaF80elYHMRwybt8Q3HV-23" value="Оплатить по СБП" style="ellipse;whiteSpace=wrap;html=1;" vertex="1" parent="1">
          <mxGeometry x="1450" y="1769" width="140" height="70" as="geometry" />
        </mxCell>
        <mxCell id="XaF80elYHMRwybt8Q3HV-24" value="Клиент" style="shape=umlActor;verticalLabelPosition=bottom;verticalAlign=top;html=1;outlineConnect=0;" vertex="1" parent="1">
          <mxGeometry x="880" y="1455" width="30" height="60" as="geometry" />
        </mxCell>
        <mxCell id="XaF80elYHMRwybt8Q3HV-25" value="" style="endArrow=none;html=1;rounded=0;entryX=0;entryY=0.5;entryDx=0;entryDy=0;" edge="1" parent="1" source="XaF80elYHMRwybt8Q3HV-24" target="XaF80elYHMRwybt8Q3HV-2">
          <mxGeometry width="50" height="50" relative="1" as="geometry">
            <mxPoint x="1230" y="1630" as="sourcePoint" />
            <mxPoint x="1280" y="1580" as="targetPoint" />
          </mxGeometry>
        </mxCell>
        <mxCell id="XaF80elYHMRwybt8Q3HV-26" value="" style="endArrow=none;html=1;rounded=0;entryX=0;entryY=0.5;entryDx=0;entryDy=0;" edge="1" parent="1" source="XaF80elYHMRwybt8Q3HV-24" target="XaF80elYHMRwybt8Q3HV-3">
          <mxGeometry width="50" height="50" relative="1" as="geometry">
            <mxPoint x="930" y="1570" as="sourcePoint" />
            <mxPoint x="1000" y="1365" as="targetPoint" />
          </mxGeometry>
        </mxCell>
        <mxCell id="XaF80elYHMRwybt8Q3HV-27" value="CRUD&lt;br&gt;Корзина" style="ellipse;whiteSpace=wrap;html=1;" vertex="1" parent="1">
          <mxGeometry x="990" y="1450" width="140" height="70" as="geometry" />
        </mxCell>
        <mxCell id="XaF80elYHMRwybt8Q3HV-28" value="" style="endArrow=none;html=1;rounded=0;entryX=0;entryY=0.5;entryDx=0;entryDy=0;" edge="1" parent="1" source="XaF80elYHMRwybt8Q3HV-24" target="XaF80elYHMRwybt8Q3HV-27">
          <mxGeometry width="50" height="50" relative="1" as="geometry">
            <mxPoint x="1230" y="1630" as="sourcePoint" />
            <mxPoint x="1280" y="1580" as="targetPoint" />
          </mxGeometry>
        </mxCell>
      </root>
    </mxGraphModel>
  </diagram>
</mxfile>
